<svg height="512" viewBox="0 0 128 128" width="512" xmlns="http://www.w3.org/2000/svg"><g><g><g fill="#fabe2c"><path d="m81.75 104.576a1.749 1.749 0 0 1 -1.75-1.75v-8.434a1.75 1.75 0 0 1 3.5 0v8.434a1.749 1.749 0 0 1 -1.75 1.75z"/><path d="m112 104.576a1.749 1.749 0 0 1 -1.75-1.75v-8.434a1.75 1.75 0 0 1 3.5 0v8.434a1.749 1.749 0 0 1 -1.75 1.75z"/><path d="m88.562 86.983a1.75 1.75 0 0 1 -1.75-1.75v-7.655a1.75 1.75 0 0 1 3.5 0v7.655a1.749 1.749 0 0 1 -1.75 1.75z"/><path d="m105.187 86.983a1.75 1.75 0 0 1 -1.75-1.75v-7.655a1.75 1.75 0 0 1 3.5 0v7.655a1.749 1.749 0 0 1 -1.75 1.75z"/></g><path d="m122.25 102.826h-116.5a4 4 0 0 0 -4 4v6h124.5v-6a4 4 0 0 0 -4-4z" fill="#b9dd39"/><path d="m71.25 61.623v-11.323a10.75 10.75 0 0 0 -10.75-10.749v-1.875a10.75 10.75 0 0 0 -10.75-10.75h-2v-1a10.749 10.749 0 0 0 -10.75-10.752h-1a10.749 10.749 0 0 0 -10.75 10.75v1h-2a10.75 10.75 0 0 0 -10.75 10.752v1.875a10.75 10.75 0 0 0 -10.75 10.749v11.323a5 5 0 0 0 5 5h59.5a5 5 0 0 0 5-5z" fill="#b9dd39"/><path d="m63.25 54.232a1.749 1.749 0 0 1 -1.75-1.75v-2.182a1 1 0 0 0 -1-1h-2.313a1.75 1.75 0 0 1 0-3.5h2.313a4.5 4.5 0 0 1 4.5 4.5v2.181a1.749 1.749 0 0 1 -1.75 1.751z" fill="#85a500"/><path d="m77.25 85.233h39.25v9.158h-39.25z" fill="#c86e59"/><path d="m83.531 68.42h26.687v9.158h-26.687z" fill="#c86e59"/><path d="m43.437 79.791v-13.168h-13.875v13.168a36.494 36.494 0 0 1 -8.187 23.035h30.25a36.495 36.495 0 0 1 -8.188-23.035z" fill="#c86e59"/></g><g><path d="m122.25 101.076h-8.5v-4.934h2.75a1.75 1.75 0 0 0 1.75-1.75v-9.159a1.75 1.75 0 0 0 -1.75-1.75h-9.563v-4.155h3.282a1.75 1.75 0 0 0 1.75-1.75v-4.578a1.75 1.75 0 0 0 -3.5 0v2.829h-23.188v-5.659h15.656a1.75 1.75 0 0 0 0-3.5h-17.406a1.749 1.749 0 0 0 -1.75 1.75v9.158a1.749 1.749 0 0 0 1.75 1.75h3.281v4.155h-9.562a1.75 1.75 0 0 0 -1.75 1.75v9.159a1.75 1.75 0 0 0 1.75 1.75h2.75v4.934h-27.52a34.851 34.851 0 0 1 -7.293-21.285v-11.418h21.063a6.758 6.758 0 0 0 6.75-6.75v-11.323a12.519 12.519 0 0 0 -10.75-12.377v-.247a12.514 12.514 0 0 0 -12.5-12.5h-.273a12.514 12.514 0 0 0 -12.477-11.752h-1a12.515 12.515 0 0 0 -12.478 11.752h-.272a12.514 12.514 0 0 0 -12.5 12.5v.247a12.519 12.519 0 0 0 -10.75 12.377v11.323a6.758 6.758 0 0 0 6.75 6.75 1.75 1.75 0 0 0 0-3.5 3.254 3.254 0 0 1 -3.25-3.25v-11.323a9.01 9.01 0 0 1 9-9 1.749 1.749 0 0 0 1.75-1.75v-1.874a9.01 9.01 0 0 1 9-9h2a1.749 1.749 0 0 0 1.75-1.75v-1a9.01 9.01 0 0 1 9-9h1a9.01 9.01 0 0 1 9 9v1a1.749 1.749 0 0 0 1.75 1.75h2a9.01 9.01 0 0 1 9 9v1.875a1.749 1.749 0 0 0 1.75 1.749 9.01 9.01 0 0 1 9 9v11.323a3.254 3.254 0 0 1 -3.25 3.25h-39.563a1.75 1.75 0 1 0 0 3.5h1.125v11.418a34.85 34.85 0 0 1 -7.292 21.285h-14.77a5.756 5.756 0 0 0 -5.75 5.75v6a1.749 1.749 0 0 0 1.75 1.75h124.5a1.749 1.749 0 0 0 1.75-1.75v-6a5.756 5.756 0 0 0 -5.75-5.75zm-31.938-21.748h13.125v4.155h-13.125zm-11.312 7.655h35.75v5.659h-35.75zm4.5 9.159h26.75v4.934h-26.75zm-52.188-16.351v-11.418h10.375v11.418a38.378 38.378 0 0 0 6.472 21.285h-23.318a38.377 38.377 0 0 0 6.471-21.285zm93.188 31.285h-121v-4.25a2.253 2.253 0 0 1 2.25-2.25h116.5a2.253 2.253 0 0 1 2.25 2.25z"/><path d="m17.5 68.373a1.75 1.75 0 0 0 0-3.5h-1.563a1.75 1.75 0 1 0 0 3.5z"/><path d="m63.25 54.232a1.749 1.749 0 0 0 1.75-1.75v-2.182a4.5 4.5 0 0 0 -4.5-4.5h-2.313a1.75 1.75 0 0 0 0 3.5h2.313a1 1 0 0 1 1 1v2.181a1.749 1.749 0 0 0 1.75 1.751z"/></g></g></svg>